<?xml version="1.0" standalone="no"?>
<!DOCTYPE svg PUBLIC "-//W3C//DTD SVG 20010904//EN"
 "http://www.w3.org/TR/2001/REC-SVG-20010904/DTD/svg10.dtd">
<svg version="1.0" xmlns="http://www.w3.org/2000/svg"
 width="80.000000pt" height="80.000000pt" viewBox="0 0 80.000000 80.000000"
 preserveAspectRatio="xMidYMid meet">
<metadata>
Created by potrace 1.14, written by Peter Selinger 2001-2017
</metadata>
<g transform="translate(0.000000,80.000000) scale(0.100000,-0.100000)"
fill="#000000" stroke="none">
<path d="M364 741 c-9 -8 -103 -46 -116 -46 -3 0 -10 -3 -14 -7 -4 -5 -16 -8
-26 -8 -10 0 -18 -5 -18 -11 0 -5 -4 -8 -9 -4 -20 12 -50 -39 -81 -138 -19
-56 -33 -107 -33 -114 0 -7 -3 -13 -7 -13 -3 0 -6 -8 -7 -17 -1 -10 -9 -40
-18 -67 -15 -44 -23 -114 -14 -119 2 -1 29 -15 59 -31 141 -74 177 -91 200
-96 35 -7 207 -5 255 3 22 3 45 2 52 -4 17 -15 203 -25 203 -12 0 6 -9 13 -20
16 -11 3 -20 2 -20 -3 0 -4 -27 -2 -60 5 -33 7 -60 11 -60 9 0 -3 -12 2 -27 9
-16 8 -37 13 -48 11 -11 -2 -41 -5 -67 -6 -27 -2 -48 -5 -48 -8 0 -6 -64 -4
-121 4 -63 9 -191 69 -210 98 -3 5 -10 10 -15 10 -48 4 -54 26 -29 97 8 23 14
44 14 46 -2 17 80 266 92 281 5 6 28 17 51 24 24 8 45 17 48 20 3 3 26 12 51
22 l47 16 35 -37 35 -38 -37 -35 c-34 -33 -38 -35 -61 -23 -14 7 -29 10 -35 7
-5 -4 -14 -7 -20 -8 -5 0 -16 -2 -23 -2 -9 -2 -11 -15 -6 -54 12 -95 10 -201
-4 -206 -6 -2 -10 -8 -6 -13 10 -16 31 -9 41 14 35 75 202 67 238 -11 10 -22
30 -29 39 -13 3 4 -1 17 -9 27 -8 10 -14 24 -14 29 0 13 44 45 72 52 47 11 64
10 115 -9 29 -11 56 -17 59 -14 20 20 -76 60 -140 58 -33 -1 -107 -30 -107
-42 0 -17 -34 -19 -74 -6 -42 14 -88 15 -138 1 -16 -4 -28 -6 -28 -4 0 2 -3
42 -7 88 l-6 84 24 -5 c13 -3 31 -8 40 -12 18 -8 80 37 103 76 16 26 15 28
-16 65 -60 70 -64 73 -74 64z"/>
<path d="M580 692 c-32 -10 -60 -45 -54 -66 8 -25 104 -115 123 -116 19 0 111
79 120 104 12 30 2 55 -28 70 -28 13 -32 13 -73 2 -15 -4 -33 -4 -40 0 -17 11
-29 12 -48 6z m73 -47 c9 -4 17 -3 17 3 0 16 30 23 51 12 10 -6 19 -19 19 -29
0 -15 -46 -60 -84 -83 -13 -7 -96 66 -96 85 0 34 29 38 93 12z"/>
<path d="M185 206 c18 -27 109 -79 145 -83 80 -8 132 -2 138 15 2 8 -15 11
-55 11 -91 -1 -139 14 -192 60 -34 30 -56 28 -36 -3z"/>
<path d="M686 212 c-9 -14 10 -32 45 -42 47 -14 59 -13 59 6 0 8 -3 13 -8 11
-4 -3 -25 3 -46 14 -46 22 -43 21 -50 11z"/>
</g>
</svg>
